<svg viewBox="0 0 400 300" xmlns="http://www.w3.org/2000/svg"><path d="m285.57 92.54v102.85a9.09 9.09 0 0 1 -9.22 9h-152.7a9.33 9.33 0 0 1 -6.72-2.83 8.72 8.72 0 0 1 -2.5-6.13v-102.89a9.09 9.09 0 0 1 9.22-9h152.7a9.09 9.09 0 0 1 9.22 9z" fill="#68e1fd"/><path d="m276.35 205.34h-152.7a10.37 10.37 0 0 1 -7.44-3.13 9.77 9.77 0 0 1 -2.78-6.83v-102.84a10.1 10.1 0 0 1 10.22-10h152.7a10.1 10.1 0 0 1 10.22 10v102.84a10.1 10.1 0 0 1 -10.22 9.96zm-152.7-120.76a8.1 8.1 0 0 0 -8.22 8v102.8a7.76 7.76 0 0 0 2.22 5.44 8.38 8.38 0 0 0 6 2.52h152.7a8.1 8.1 0 0 0 8.22-8v-102.8a8.1 8.1 0 0 0 -8.22-8z" fill="#093f68"/><path d="m231.63 235.81h-63.26l6.69-31.46h49.88z" fill="#68e1fd"/><path d="m231.63 236.81h-63.26a1 1 0 0 1 -.77-.37 1 1 0 0 1 -.2-.83l6.69-31.47a1 1 0 0 1 1-.79h49.88a1 1 0 0 1 1 .79l6.69 31.47a1 1 0 0 1 -.2.83 1 1 0 0 1 -.83.37zm-62-2h60.78l-6.26-29.46h-48.28z" fill="#093f68"/><circle cx="200" cy="191.12" fill="#093f68" r="3.89"/><path d="m200 196a4.89 4.89 0 1 1 4.89-4.89 4.9 4.9 0 0 1 -4.89 4.89zm0-7.78a2.89 2.89 0 1 0 2.89 2.89 2.89 2.89 0 0 0 -2.89-2.88z" fill="#093f68"/><path d="m285.57 92.11v87.3h-171.14v-87.3a9.09 9.09 0 0 1 9.22-9h152.7a9.09 9.09 0 0 1 9.22 9z" fill="#093f68"/><path d="m285.57 180.41h-171.14a1 1 0 0 1 -1-1v-87.3a10.1 10.1 0 0 1 10.22-10h152.7a10.1 10.1 0 0 1 10.22 10v87.3a1 1 0 0 1 -1 1zm-170.14-2h169.14v-86.3a8.1 8.1 0 0 0 -8.22-8h-152.7a8.1 8.1 0 0 0 -8.22 8z" fill="#093f68"/><path d="m138.63 64.19h122.75v115.23h-122.75z" fill="#fff"/><path d="m261.37 180.41h-122.74a1 1 0 0 1 -1-1v-115.22a1 1 0 0 1 1-1h122.74a1 1 0 0 1 1 1v115.22a1 1 0 0 1 -1 1zm-121.74-2h120.74v-113.22h-120.74z" fill="#093f68"/><path d="m138.63 64.19h122.75v8.82h-122.75z" fill="#68e1fd"/><path d="m261.37 74h-122.74a1 1 0 0 1 -1-1v-8.81a1 1 0 0 1 1-1h122.74a1 1 0 0 1 1 1v8.81a1 1 0 0 1 -1 1zm-121.74-2h120.74v-6.81h-120.74z" fill="#093f68"/><path d="m166.81 134.3h-14.65v-6l13.7-20.86h7.78v20.86h4.36v6h-4.31v6.7h-6.83zm0-17.54h-.1l-7.44 11.57h7.54z" fill="#093f68"/><path d="m236.7 134.3h-14.65v-6l13.7-20.86h7.78v20.86h4.31v6h-4.31v6.7h-6.83zm0-17.54h-.09l-7.45 11.57h7.54z" fill="#093f68"/><path d="m212.09 120.84s-4.83-2.35-12.8.57-10.13 7.85-10.13 7.85a12.21 12.21 0 0 0 22.93-8.42z" fill="#093f68"/><path d="m200.62 138.27a13.25 13.25 0 0 1 -12.4-8.67 1 1 0 0 1 0-.75c.09-.21 2.42-5.34 10.7-8.38s13.37-.64 13.58-.53a1 1 0 0 1 .5.55 13.24 13.24 0 0 1 -12.41 17.78zm-10.36-9a11.22 11.22 0 0 0 14.23 6.25 11.22 11.22 0 0 0 6.81-14c-1.22-.43-5.43-1.54-11.66.75s-8.74 5.94-9.38 7.05z" fill="#093f68"/><ellipse cx="200.79" cy="125.5" fill="#68e1fd" rx="19.7" ry="8.42" transform="matrix(.93873386 -.34464292 .34464292 .93873386 -30.95 76.9)"/><path d="m191 136.91c-5 0-8.63-1.46-9.66-4.27-1.82-5 5.29-12 16.19-16a37.68 37.68 0 0 1 14.32-2.55c4.47.24 7.44 1.75 8.36 4.26.92 2.51-.37 5.58-3.62 8.64a37.55 37.55 0 0 1 -12.59 7.35 38.79 38.79 0 0 1 -13 2.57zm19.6-20.83a37.06 37.06 0 0 0 -12.38 2.46c-10.5 3.86-16.24 10-15 13.41s9.61 4.37 20.11.51a35.64 35.64 0 0 0 11.89-6.9c2.59-2.45 3.73-4.82 3.11-6.51-.62-1.68-3-2.75-6.58-2.94-.36-.02-.75-.03-1.13-.03z" fill="#093f68"/><path d="m210.92 117.66s-2.16 4.91-10.13 7.84-12.8.58-12.8.58a12.21 12.21 0 1 1 22.93-8.42z" fill="#f56132"/><path d="m193.1 128a13.31 13.31 0 0 1 -5.54-1 .93.93 0 0 1 -.5-.55 13.21 13.21 0 0 1 24.8-9.11 1 1 0 0 1 0 .75c-.1.22-2.43 5.34-10.7 8.38a23.22 23.22 0 0 1 -8.06 1.53zm-4.31-2.65c1.21.42 5.42 1.53 11.66-.76s8.74-5.86 9.38-7a11.21 11.21 0 0 0 -21 7.72z" fill="#093f68"/><path d="m219.39 88.37-68.39-.37a1 1 0 0 1 -1-1 1 1 0 0 1 1-1l68.38.41a1 1 0 0 1 0 2z" fill="#dfeaef"/><circle cx="143.06" cy="68.55" fill="#093f68" r="1.27"/><circle cx="147" cy="68.55" fill="#093f68" r="1.27"/><circle cx="150.94" cy="68.55" fill="#093f68" r="1.27"/><path d="m202.45 97.62-51.45-.31a1 1 0 0 1 0-2l51.44.31a1 1 0 0 1 0 2z" fill="#dfeaef"/><rect fill="#68e1fd" height="10.14" rx="5.07" width="86.36" x="156.82" y="225.68"/><path d="m238.11 236.81h-76.22a6.07 6.07 0 1 1 0-12.13h76.22a6.07 6.07 0 1 1 0 12.13zm-76.22-10.13a4.07 4.07 0 1 0 0 8.13h76.22a4.07 4.07 0 1 0 0-8.13z" fill="#093f68"/><rect fill="#ffbc0e" height="27.63" rx="2.72" width="84.33" x="211.79" y="158.4"/><g fill="#093f68"><path d="m293.41 187h-78.9a3.73 3.73 0 0 1 -3.72-3.72v-22.2a3.73 3.73 0 0 1 3.72-3.72h78.9a3.73 3.73 0 0 1 3.72 3.72v22.2a3.73 3.73 0 0 1 -3.72 3.72zm-78.9-27.64a1.73 1.73 0 0 0 -1.72 1.72v22.2a1.73 1.73 0 0 0 1.72 1.72h78.9a1.73 1.73 0 0 0 1.72-1.72v-22.2a1.72 1.72 0 0 0 -1.72-1.72z"/><path d="m218.06 168h2.54l3.61 5.9v-5.9h1.87v8.49h-2.45l-3.71-6v6h-1.87z"/><path d="m227.38 172.22a4.76 4.76 0 0 1 .34-1.85 4 4 0 0 1 1-1.41 4.13 4.13 0 0 1 1.45-.9 5.59 5.59 0 0 1 3.67 0 4.23 4.23 0 0 1 1.45.9 4 4 0 0 1 1 1.41 5.18 5.18 0 0 1 0 3.69 3.92 3.92 0 0 1 -1 1.41 4.23 4.23 0 0 1 -1.45.9 5.59 5.59 0 0 1 -3.67 0 4.13 4.13 0 0 1 -1.45-.9 3.92 3.92 0 0 1 -1-1.41 4.75 4.75 0 0 1 -.34-1.84zm1.94 0a3.15 3.15 0 0 0 .19 1.09 2.4 2.4 0 0 0 1.37 1.44 2.85 2.85 0 0 0 1.08.2 2.9 2.9 0 0 0 1.09-.2 2.56 2.56 0 0 0 .83-.57 2.6 2.6 0 0 0 .54-.87 3.16 3.16 0 0 0 .18-1.09 3.25 3.25 0 0 0 -.18-1.1 2.6 2.6 0 0 0 -.54-.87 2.56 2.56 0 0 0 -.83-.57 2.9 2.9 0 0 0 -1.09-.2 2.85 2.85 0 0 0 -1.08.2 2.4 2.4 0 0 0 -1.37 1.44 3.26 3.26 0 0 0 -.19 1.1z"/><path d="m239.46 169.62h-2.46v-1.62h6.72v1.65h-2.42v6.84h-1.88z"/><path d="m248.33 168h5.67v1.73h-3.8v1.72h3.54v1.73h-3.54v3.31h-1.87z"/><path d="m254.92 172.22a4.76 4.76 0 0 1 .34-1.85 4 4 0 0 1 1-1.41 4.13 4.13 0 0 1 1.45-.9 5.59 5.59 0 0 1 3.67 0 4.23 4.23 0 0 1 1.45.9 4 4 0 0 1 1 1.41 5.18 5.18 0 0 1 0 3.69 3.92 3.92 0 0 1 -1 1.41 4.23 4.23 0 0 1 -1.45.9 5.59 5.59 0 0 1 -3.67 0 4.13 4.13 0 0 1 -1.45-.9 3.92 3.92 0 0 1 -1-1.41 4.75 4.75 0 0 1 -.34-1.84zm1.94 0a3.15 3.15 0 0 0 .19 1.09 2.4 2.4 0 0 0 1.37 1.44 2.85 2.85 0 0 0 1.08.2 2.9 2.9 0 0 0 1.09-.2 2.56 2.56 0 0 0 .83-.57 2.6 2.6 0 0 0 .54-.87 3.16 3.16 0 0 0 .18-1.09 3.25 3.25 0 0 0 -.18-1.1 2.6 2.6 0 0 0 -.54-.87 2.56 2.56 0 0 0 -.83-.57 2.9 2.9 0 0 0 -1.09-.2 2.85 2.85 0 0 0 -1.08.2 2.4 2.4 0 0 0 -1.37 1.44 3.26 3.26 0 0 0 -.19 1.1z"/><path d="m272.52 173.19a4.14 4.14 0 0 1 -.22 1.39 3.18 3.18 0 0 1 -.68 1.1 3.13 3.13 0 0 1 -1.12.74 4.78 4.78 0 0 1 -3.11 0 3.07 3.07 0 0 1 -1.8-1.84 4.14 4.14 0 0 1 -.23-1.39v-5.19h1.87v5.15a2 2 0 0 0 .13.73 1.7 1.7 0 0 0 .35.58 1.64 1.64 0 0 0 .55.38 1.58 1.58 0 0 0 .69.14 1.53 1.53 0 0 0 .68-.14 1.6 1.6 0 0 0 .54-.38 1.89 1.89 0 0 0 .36-.58 2.19 2.19 0 0 0 .12-.73v-5.15h1.87z"/><path d="m274.25 168h2.55l3.61 5.9v-5.9h1.87v8.49h-2.45l-3.7-6v6h-1.87z"/><path d="m284 168h2.81a7.64 7.64 0 0 1 1.94.23 4.43 4.43 0 0 1 1.6.73 3.65 3.65 0 0 1 1.09 1.33 4.53 4.53 0 0 1 .4 2 4.06 4.06 0 0 1 -.39 1.82 4 4 0 0 1 -1.05 1.32 4.86 4.86 0 0 1 -1.53.81 6 6 0 0 1 -1.81.27h-3.06zm1.87 6.77h1a5.06 5.06 0 0 0 1.2-.14 2.52 2.52 0 0 0 1-.43 2.24 2.24 0 0 0 .64-.81 2.8 2.8 0 0 0 .23-1.22 2.32 2.32 0 0 0 -.23-1.08 2.23 2.23 0 0 0 -.63-.76 2.69 2.69 0 0 0 -.93-.45 4.15 4.15 0 0 0 -1.12-.15h-1.13z"/></g><rect fill="#ffbc0e" height="21.72" rx="2.23" width="56.02" x="121.66" y="148.97"/><path d="m175.46 171.69h-51.57a3.23 3.23 0 0 1 -3.23-3.23v-17.26a3.23 3.23 0 0 1 3.23-3.23h51.57a3.23 3.23 0 0 1 3.22 3.23v17.26a3.23 3.23 0 0 1 -3.22 3.23zm-51.57-21.69a1.23 1.23 0 0 0 -1.23 1.23v17.26a1.23 1.23 0 0 0 1.23 1.23h51.57a1.23 1.23 0 0 0 1.22-1.23v-17.29a1.23 1.23 0 0 0 -1.22-1.23z" fill="#093f68"/><path d="m125.74 159.13a5.33 5.33 0 0 1 .37-2 4.37 4.37 0 0 1 1.06-1.55 4.59 4.59 0 0 1 1.6-1 6.17 6.17 0 0 1 4 0 4.64 4.64 0 0 1 1.61 1 4.34 4.34 0 0 1 1.05 1.55 5.33 5.33 0 0 1 .37 2 5.25 5.25 0 0 1 -.37 2 4.4 4.4 0 0 1 -2.66 2.54 6 6 0 0 1 -4 0 4.43 4.43 0 0 1 -1.6-1 4.5 4.5 0 0 1 -1.06-1.56 5.25 5.25 0 0 1 -.37-1.98zm2.14 0a3.61 3.61 0 0 0 .2 1.21 3 3 0 0 0 .59.95 2.79 2.79 0 0 0 .92.63 3.38 3.38 0 0 0 2.4 0 2.79 2.79 0 0 0 .92-.63 3 3 0 0 0 .59-.95 3.61 3.61 0 0 0 .2-1.21 3.66 3.66 0 0 0 -.2-1.21 2.64 2.64 0 0 0 -1.51-1.58 3.25 3.25 0 0 0 -2.4 0 2.64 2.64 0 0 0 -1.51 1.58 3.66 3.66 0 0 0 -.2 1.21z" fill="#093f68"/><path d="m138.07 159.13a5.33 5.33 0 0 1 .37-2 4.34 4.34 0 0 1 1.05-1.55 4.64 4.64 0 0 1 1.61-1 6.17 6.17 0 0 1 4 0 4.59 4.59 0 0 1 1.6 1 4.5 4.5 0 0 1 1.06 1.55 5.33 5.33 0 0 1 .37 2 5.25 5.25 0 0 1 -.37 2 4.64 4.64 0 0 1 -1.06 1.56 4.43 4.43 0 0 1 -1.6 1 6 6 0 0 1 -4 0 4.4 4.4 0 0 1 -2.66-2.54 5.25 5.25 0 0 1 -.37-2.02zm2.14 0a3.61 3.61 0 0 0 .2 1.21 3 3 0 0 0 .59.95 2.79 2.79 0 0 0 .92.63 3.38 3.38 0 0 0 2.4 0 2.79 2.79 0 0 0 .92-.63 3 3 0 0 0 .59-.95 3.61 3.61 0 0 0 .2-1.21 3.66 3.66 0 0 0 -.2-1.21 2.64 2.64 0 0 0 -1.51-1.58 3.25 3.25 0 0 0 -2.4 0 2.64 2.64 0 0 0 -1.51 1.58 3.66 3.66 0 0 0 -.2 1.21z" fill="#093f68"/><path d="m150.9 154.44h3.48a6.7 6.7 0 0 1 1.37.14 3 3 0 0 1 1.13.45 2.27 2.27 0 0 1 .77.88 2.94 2.94 0 0 1 .29 1.38 3.1 3.1 0 0 1 -.27 1.37 2.29 2.29 0 0 1 -.73.89 2.84 2.84 0 0 1 -1.09.47 6.72 6.72 0 0 1 -1.38.14h-1.47v3.65h-2.1zm2.06 4h1.38a2.32 2.32 0 0 0 .53 0 1.39 1.39 0 0 0 .47-.18 1.07 1.07 0 0 0 .33-.34 1.15 1.15 0 0 0 .12-.55 1 1 0 0 0 -.16-.58 1.1 1.1 0 0 0 -.43-.33 2 2 0 0 0 -.57-.16h-.61-1.02z" fill="#093f68"/><path d="m165.19 156.73a1.52 1.52 0 0 0 -.68-.47 2.25 2.25 0 0 0 -1.28-.1 1.74 1.74 0 0 0 -.45.17.83.83 0 0 0 -.34.3.73.73 0 0 0 -.14.45.76.76 0 0 0 .32.65 3.14 3.14 0 0 0 .8.38l1 .32a3.86 3.86 0 0 1 1 .45 2.24 2.24 0 0 1 1.12 2.09 2.93 2.93 0 0 1 -.3 1.36 2.75 2.75 0 0 1 -.78 1 3.42 3.42 0 0 1 -1.15.56 4.86 4.86 0 0 1 -1.39.19 4.91 4.91 0 0 1 -1.69-.28 4.11 4.11 0 0 1 -1.46-.9l1.47-1.61a2.19 2.19 0 0 0 .8.65 2.25 2.25 0 0 0 1 .23 2.22 2.22 0 0 0 .51-.06 1.75 1.75 0 0 0 .47-.17 1.22 1.22 0 0 0 .33-.31.85.85 0 0 0 -.2-1.1 2.74 2.74 0 0 0 -.82-.42l-1-.34a4.62 4.62 0 0 1 -1.06-.47 2.59 2.59 0 0 1 -.82-.76 2.26 2.26 0 0 1 -.32-1.26 2.79 2.79 0 0 1 .3-1.32 3 3 0 0 1 .79-1 3.54 3.54 0 0 1 1.15-.57 4.55 4.55 0 0 1 1.33-.19 5.31 5.31 0 0 1 1.54.22 3.52 3.52 0 0 1 1.33.75z" fill="#093f68"/><path d="m170.24 162.67a1.27 1.27 0 0 1 .09-.47 1.2 1.2 0 0 1 .65-.65 1.28 1.28 0 0 1 .48-.09 1.27 1.27 0 0 1 .47.09 1.2 1.2 0 0 1 .65.65 1.27 1.27 0 0 1 .09.47 1.28 1.28 0 0 1 -.09.48 1.2 1.2 0 0 1 -.65.65 1.27 1.27 0 0 1 -.47.09 1.28 1.28 0 0 1 -.48-.09 1.2 1.2 0 0 1 -.65-.65 1.28 1.28 0 0 1 -.09-.48zm2.21-2h-2v-6.27h2z" fill="#093f68"/><path d="m263 97.34h-30.61a3 3 0 0 1 -2.49-4.73l15.3-22.25a3 3 0 0 1 5 0l15.3 22.25a3 3 0 0 1 -2.5 4.73z" fill="#fff"/><path d="m263 98.34h-30.61a4 4 0 0 1 -3.31-6.3l15.29-22.25a4 4 0 0 1 6.62 0l15.3 22.21a4 4 0 0 1 -3.31 6.3zm-15.3-28.29a2 2 0 0 0 -1.66.88l-15.3 22.25a2 2 0 0 0 1.67 3.16h30.59a2 2 0 0 0 1.66-3.16l-15.31-22.25a2 2 0 0 0 -1.67-.88z" fill="#093f68"/><path d="m245.7 90a2 2 0 0 1 .15-.77 1.88 1.88 0 0 1 1.06-1.06 2 2 0 0 1 2.19.42 1.87 1.87 0 0 1 .42.64 2.08 2.08 0 0 1 0 1.55 1.87 1.87 0 0 1 -.42.64 2 2 0 0 1 -.64.42 2.08 2.08 0 0 1 -1.55 0 1.88 1.88 0 0 1 -1.06-1.06 2 2 0 0 1 -.15-.78zm3.6-3.19h-3.23v-10.25h3.23z" fill="#093f68"/></svg>